<svg xmlns="http://www.w3.org/2000/svg" viewBox="0 0 235.25 90.24"><defs><style>.cls-1{fill:#e53520;}</style></defs><title>Pulse Rouge - Fixed</title><g id="Calque_2" data-name="Calque 2"><g id="Calque_1-2" data-name="Calque 1"><g id="Pulse_Rouge_-_Fixed" data-name="Pulse Rouge - Fixed"><path class="cls-1" d="M24.81,0h-12V12.87H24.78a10.34,10.34,0,1,1,0,20.67H12.84V23.21H0V61.29H12.84V46.38H24.66A23.19,23.19,0,1,0,24.78,0"/><path class="cls-1" d="M98.75,0H85.91V37.58A10.88,10.88,0,0,1,74.23,48.42,11.15,11.15,0,0,1,64.14,37.49V0H51.3V37.45a23.73,23.73,0,1,0,47.45.13Z"/><polygon class="cls-1" points="127.96 48.45 115.83 48.45 115.83 0.03 102.99 0.03 102.99 61.29 127.96 61.29 127.96 48.45"/><path class="cls-1" d="M191.93,24c2.37-6.29,8-10.73,14.56-10.73s12.2,4.44,14.57,10.73ZM206.49,0c-16,0-29,13.75-29,30.65A30.67,30.67,0,0,0,208.1,61.3V48a17.42,17.42,0,0,1-16-10.73h42.49a32.05,32.05,0,0,0,.7-6.64C235.24,13.71,222.5,0,206.49,0"/><path class="cls-1" d="M175.62,42.76a18.55,18.55,0,0,1-18.53,18.53H131.83V48.4h25.22a5.66,5.66,0,0,0,0-11.32H143.73a18.53,18.53,0,0,1,0-37h13.34V12.87H143.83a5.66,5.66,0,1,0-.08,11.31h13.34a18.55,18.55,0,0,1,18.53,18.53"/><path class="cls-1" d="M6.8,85.9a1.64,1.64,0,0,0,.71-1.47q0-1.92-2.79-1.92H1.09v3.86H4.72A3.79,3.79,0,0,0,6.8,85.9m-5.71-8v3.76h3.3a3.32,3.32,0,0,0,1.93-.48,1.78,1.78,0,0,0,0-2.8,3.32,3.32,0,0,0-1.93-.48Zm7,5a2.48,2.48,0,0,1,.55,1.68,2.35,2.35,0,0,1-1,2,4.87,4.87,0,0,1-2.89.72H0V77H4.44a4.45,4.45,0,0,1,2.66.69,2.29,2.29,0,0,1,1,2,2.4,2.4,0,0,1-.42,1.44A2.45,2.45,0,0,1,6.48,82,2.71,2.71,0,0,1,8,82.87"/><path class="cls-1" d="M17.85,79.57V87.3h-1V85.89A2.82,2.82,0,0,1,15.68,87a3.41,3.41,0,0,1-1.65.39,3.26,3.26,0,0,1-2.38-.85,3.24,3.24,0,0,1-.88-2.47V79.57h1.09V84a2.59,2.59,0,0,0,.6,1.85,2.27,2.27,0,0,0,1.72.63,2.56,2.56,0,0,0,1.93-.74,2.9,2.9,0,0,0,.7-2.07V79.57Z"/><path class="cls-1" d="M20.78,79.57h1V87.3h-1Zm0-1.93a.71.71,0,0,1-.22-.53.68.68,0,0,1,.22-.51.73.73,0,0,1,.54-.22.77.77,0,0,1,.55.21.7.7,0,0,1,.22.51.77.77,0,0,1-.22.54.79.79,0,0,1-1.09,0"/><rect class="cls-1" x="24.7" y="76.36" width="1.03" height="10.94"/><path class="cls-1" d="M33.31,86.06a2.69,2.69,0,0,0,1-1.06,3.54,3.54,0,0,0,0-3.15,2.72,2.72,0,0,0-1-1.07,3.13,3.13,0,0,0-3,0,2.72,2.72,0,0,0-1,1.07,3.54,3.54,0,0,0,0,3.15,2.69,2.69,0,0,0,1,1.06,3.05,3.05,0,0,0,3,0m2.43-9.7V87.3h-1V85.76A3.55,3.55,0,0,1,33.5,87a3.73,3.73,0,0,1-1.75.41,4,4,0,0,1-2-.5,3.57,3.57,0,0,1-1.38-1.4,4.43,4.43,0,0,1,0-4.09A3.48,3.48,0,0,1,29.78,80a4,4,0,0,1,2-.49,3.64,3.64,0,0,1,1.7.39A6.09,6.09,0,0,1,34.71,81V76.36Z"/><path class="cls-1" d="M38.68,79.57h1V87.3h-1Zm0-1.93a.71.71,0,0,1-.22-.53.68.68,0,0,1,.22-.51.73.73,0,0,1,.54-.22.77.77,0,0,1,.55.21.67.67,0,0,1,.22.51.77.77,0,0,1-1.31.54"/><path class="cls-1" d="M48.87,80.34a3.34,3.34,0,0,1,.86,2.47V87.3h-1V82.91a2.58,2.58,0,0,0-.6-1.84,2.25,2.25,0,0,0-1.71-.63,2.65,2.65,0,0,0-2,.74,2.83,2.83,0,0,0-.72,2V87.3H42.6V79.57h1V81a2.89,2.89,0,0,1,1.18-1.09,3.8,3.8,0,0,1,1.76-.39,3.18,3.18,0,0,1,2.32.84"/><path class="cls-1" d="M57.33,85.71a2.55,2.55,0,0,0,1.05-1,2.87,2.87,0,0,0,.37-1.47,2.81,2.81,0,0,0-.37-1.46,2.6,2.6,0,0,0-1.05-1,3.13,3.13,0,0,0-1.52-.36,3.26,3.26,0,0,0-1.51.35,2.63,2.63,0,0,0-1,1,3,3,0,0,0,0,2.94,2.59,2.59,0,0,0,1,1,3.15,3.15,0,0,0,1.51.36,3.22,3.22,0,0,0,1.52-.36m2.41-6.14v6.8a4,4,0,0,1-1,2.92,3.91,3.91,0,0,1-2.87.95,6.42,6.42,0,0,1-2-.32,4.21,4.21,0,0,1-1.55-.87l.53-.8a3.85,3.85,0,0,0,1.34.78,4.92,4.92,0,0,0,1.67.28A3,3,0,0,0,58,88.63a2.9,2.9,0,0,0,.68-2.13v-1a5.77,5.77,0,0,1-1.25,1.12,4,4,0,0,1-1.74.38,4.08,4.08,0,0,1-2-.48,3.47,3.47,0,0,1-1.4-1.34,4,4,0,0,1,0-3.89A3.46,3.46,0,0,1,53.72,80a4.09,4.09,0,0,1,2-.47,4,4,0,0,1,1.78.39A3.2,3.2,0,0,1,58.76,81V79.57Z"/><path class="cls-1" d="M71.18,86.06a2.69,2.69,0,0,0,1-1.06,3.54,3.54,0,0,0,0-3.15,2.72,2.72,0,0,0-1-1.07,3.13,3.13,0,0,0-3,0,2.72,2.72,0,0,0-1,1.07,3.54,3.54,0,0,0,0,3.15,2.69,2.69,0,0,0,1,1.06,3.05,3.05,0,0,0,3,0m2.43-9.7V87.3h-1V85.76A3.44,3.44,0,0,1,71.37,87a3.72,3.72,0,0,1-1.74.41,4,4,0,0,1-2-.5,3.57,3.57,0,0,1-1.38-1.4,4.43,4.43,0,0,1,0-4.09A3.48,3.48,0,0,1,67.65,80a4,4,0,0,1,2-.49,3.63,3.63,0,0,1,1.69.39A6.09,6.09,0,0,1,72.58,81V76.36Z"/><path class="cls-1" d="M76.55,79.57h1V87.3h-1Zm0-1.93a.71.71,0,0,1-.22-.53.68.68,0,0,1,.22-.51.74.74,0,0,1,.55-.22.76.76,0,0,1,.54.21.67.67,0,0,1,.22.51.77.77,0,0,1-1.31.54"/><path class="cls-1" d="M85.21,85.71a2.55,2.55,0,0,0,1.05-1,2.87,2.87,0,0,0,.37-1.47,2.81,2.81,0,0,0-.37-1.46,2.6,2.6,0,0,0-1.05-1,3.13,3.13,0,0,0-1.52-.36,3.26,3.26,0,0,0-1.51.35,2.63,2.63,0,0,0-1,1,3,3,0,0,0,0,2.94,2.59,2.59,0,0,0,1,1,3.15,3.15,0,0,0,1.51.36,3.19,3.19,0,0,0,1.52-.36m2.44-6.14v6.8a4,4,0,0,1-1,2.92,3.91,3.91,0,0,1-2.87.95,6.42,6.42,0,0,1-2-.32,4.21,4.21,0,0,1-1.55-.87l.53-.8a3.85,3.85,0,0,0,1.34.78,4.92,4.92,0,0,0,1.67.28,3,3,0,0,0,2.14-.68,2.9,2.9,0,0,0,.68-2.13v-1a5.92,5.92,0,0,1-1.28,1.12,4,4,0,0,1-1.74.38,4.08,4.08,0,0,1-2-.48,3.54,3.54,0,0,1-1.4-1.34,4,4,0,0,1,0-3.89A3.46,3.46,0,0,1,81.6,80a4.09,4.09,0,0,1,2-.47,4,4,0,0,1,1.78.39A3.42,3.42,0,0,1,86.67,81V79.57Z"/><path class="cls-1" d="M90.59,79.57h1V87.3h-1Zm0-1.93a.75.75,0,0,1-.22-.53.72.72,0,0,1,.22-.51.74.74,0,0,1,.55-.22.76.76,0,0,1,.54.21.67.67,0,0,1,.22.51.77.77,0,0,1-1.31.54"/><path class="cls-1" d="M98.58,86.83a2,2,0,0,1-.72.4,3,3,0,0,1-.9.14,2.24,2.24,0,0,1-1.66-.59,2.28,2.28,0,0,1-.58-1.66V80.44H93.36v-.87h1.36V77.88h1v1.69h2.34v.87H95.75v4.62a1.46,1.46,0,0,0,.35,1,1.28,1.28,0,0,0,1,.36,1.87,1.87,0,0,0,.62-.1,1.75,1.75,0,0,0,.52-.29Z"/><path class="cls-1" d="M104.39,86.14a2.45,2.45,0,0,0,.94-1.17V83.71H102.9q-2,0-2,1.38a1.26,1.26,0,0,0,.51,1.06,2.35,2.35,0,0,0,1.44.39,2.76,2.76,0,0,0,1.52-.4m1.16-5.89a3,3,0,0,1,.81,2.25v4.8h-1.08V86.09a1.93,1.93,0,0,1-1,.94,3.69,3.69,0,0,1-1.62.34,3.18,3.18,0,0,1-2.06-.62,2.12,2.12,0,0,1-.06-3.22,3.37,3.37,0,0,1,2.28-.59h2.48v-.49a2,2,0,0,0-.56-1.52,2.3,2.3,0,0,0-1.63-.52,4.18,4.18,0,0,0-1.41.24,3.62,3.62,0,0,0-1.17.67l-.47-.78a4.21,4.21,0,0,1,1.42-.77,5.45,5.45,0,0,1,1.73-.27,3.31,3.31,0,0,1,2.33.75"/><rect class="cls-1" x="109.19" y="76.36" width="1.03" height="10.94"/><path class="cls-1" d="M117.27,87.09a3.73,3.73,0,0,1-1.34-.68l.47-.82a4,4,0,0,0,1.22.62,4.9,4.9,0,0,0,1.53.24,2.94,2.94,0,0,0,1.57-.33,1,1,0,0,0,.51-.93.87.87,0,0,0-.28-.67,2.08,2.08,0,0,0-.71-.37c-.29-.08-.66-.16-1.13-.24a13.93,13.93,0,0,1-1.52-.36,2.18,2.18,0,0,1-1-.63,1.73,1.73,0,0,1-.4-1.22,1.94,1.94,0,0,1,.81-1.59,3.65,3.65,0,0,1,2.25-.61,5.93,5.93,0,0,1,1.5.19,4.32,4.32,0,0,1,1.24.53l-.46.84a3.86,3.86,0,0,0-2.28-.67,2.61,2.61,0,0,0-1.51.36,1.07,1.07,0,0,0-.51.92.93.93,0,0,0,.29.71,1.69,1.69,0,0,0,.71.39c.29.08.68.17,1.18.26a11.94,11.94,0,0,1,1.49.35,2.21,2.21,0,0,1,1,.6,1.66,1.66,0,0,1,.4,1.18,1.86,1.86,0,0,1-.85,1.61,4,4,0,0,1-2.34.6,5.76,5.76,0,0,1-1.81-.28"/><path class="cls-1" d="M128.84,86.07a2.63,2.63,0,0,0,1-1.07,3.54,3.54,0,0,0,0-3.15,2.57,2.57,0,0,0-1-1.07,3.14,3.14,0,0,0-3,0,2.72,2.72,0,0,0-1,1.07,3.54,3.54,0,0,0,0,3.15,2.79,2.79,0,0,0,1,1.07,3.15,3.15,0,0,0,3,0m-3.49.79a3.77,3.77,0,0,1-1.42-1.41,4,4,0,0,1-.51-2,4.05,4.05,0,0,1,.51-2A3.65,3.65,0,0,1,125.35,80a4.31,4.31,0,0,1,4,0,3.53,3.53,0,0,1,1.4,1.39,4.05,4.05,0,0,1,.51,2,4,4,0,0,1-.51,2,3.65,3.65,0,0,1-1.4,1.41,4.24,4.24,0,0,1-4,0"/><rect class="cls-1" x="133.4" y="76.36" width="1.03" height="10.94"/><path class="cls-1" d="M144.34,79.57V87.3h-1V85.89A2.82,2.82,0,0,1,142.23,87a3.41,3.41,0,0,1-1.65.39,3,3,0,0,1-3.26-3.32V79.57h1V84a2.59,2.59,0,0,0,.61,1.85,2.26,2.26,0,0,0,1.72.63,2.54,2.54,0,0,0,1.92-.74,2.9,2.9,0,0,0,.71-2.07V79.57Z"/><path class="cls-1" d="M151.3,86.83a2.1,2.1,0,0,1-.72.4,3,3,0,0,1-.9.14,2,2,0,0,1-2.24-2.25V80.44h-1.36v-.87h1.36V77.88h1v1.69h2.4v.87h-2.4v4.62a1.46,1.46,0,0,0,.35,1,1.27,1.27,0,0,0,1,.36,1.87,1.87,0,0,0,.62-.1,1.58,1.58,0,0,0,.51-.29Z"/><path class="cls-1" d="M153.26,79.57h1V87.3h-1Zm0-1.93a.71.71,0,0,1-.22-.53.68.68,0,0,1,.22-.51.74.74,0,0,1,.55-.22.76.76,0,0,1,.54.21.67.67,0,0,1,.22.51.77.77,0,0,1-1.31.54"/><path class="cls-1" d="M161.86,86.07a2.77,2.77,0,0,0,1-1.07,3.54,3.54,0,0,0,0-3.15,2.7,2.7,0,0,0-1-1.07,3.14,3.14,0,0,0-3,0,2.66,2.66,0,0,0-1,1.07,3.45,3.45,0,0,0,0,3.15,2.72,2.72,0,0,0,1,1.07,3.14,3.14,0,0,0,3,0m-3.5.79A3.67,3.67,0,0,1,157,85.45a4,4,0,0,1-.52-2,4.06,4.06,0,0,1,.52-2A3.56,3.56,0,0,1,158.36,80a4.31,4.31,0,0,1,4,0,3.56,3.56,0,0,1,1.41,1.39,4.05,4.05,0,0,1,.51,2,4,4,0,0,1-.51,2,3.67,3.67,0,0,1-1.41,1.41,4.24,4.24,0,0,1-4,0"/><path class="cls-1" d="M172.7,80.34a3.34,3.34,0,0,1,.86,2.47V87.3h-1V82.91a2.58,2.58,0,0,0-.6-1.84,2.25,2.25,0,0,0-1.71-.63,2.64,2.64,0,0,0-2,.74,2.83,2.83,0,0,0-.72,2V87.3h-1.09V79.57h1V81a2.89,2.89,0,0,1,1.18-1.09,3.8,3.8,0,0,1,1.76-.39,3.19,3.19,0,0,1,2.32.84"/><path class="cls-1" d="M176.67,87.09a3.73,3.73,0,0,1-1.34-.68l.47-.82a4,4,0,0,0,1.22.62,4.9,4.9,0,0,0,1.53.24,2.94,2.94,0,0,0,1.57-.33,1.06,1.06,0,0,0,.5-.93.83.83,0,0,0-.28-.67,1.94,1.94,0,0,0-.7-.37,11.4,11.4,0,0,0-1.14-.24,14.26,14.26,0,0,1-1.51-.36,2.18,2.18,0,0,1-1-.63,1.73,1.73,0,0,1-.4-1.22,1.94,1.94,0,0,1,.81-1.59,3.61,3.61,0,0,1,2.25-.61,5.93,5.93,0,0,1,1.5.19,4.14,4.14,0,0,1,1.23.53l-.45.84a3.86,3.86,0,0,0-2.28-.67,2.61,2.61,0,0,0-1.51.36,1.07,1.07,0,0,0-.51.92.93.93,0,0,0,.29.71,1.69,1.69,0,0,0,.71.39c.29.08.68.17,1.18.26a11.31,11.31,0,0,1,1.48.35,2.18,2.18,0,0,1,1,.6,1.66,1.66,0,0,1,.4,1.18,1.86,1.86,0,0,1-.85,1.61,4,4,0,0,1-2.35.6,5.74,5.74,0,0,1-1.8-.28"/><path class="cls-1" d="M189,77.55a1.55,1.55,0,0,0-.34,1.09v.93H191v.87h-2.34V87.3h-1.09V80.44h-1.36v-.87h1.36v-1a2.31,2.31,0,0,1,.61-1.68,2.35,2.35,0,0,1,1.73-.62,2.76,2.76,0,0,1,.86.13,1.89,1.89,0,0,1,.69.36l-.36.78a1.67,1.67,0,0,0-1.14-.38,1.36,1.36,0,0,0-1,.36"/><path class="cls-1" d="M197,86.07A2.77,2.77,0,0,0,198,85a3.54,3.54,0,0,0,0-3.15,2.7,2.7,0,0,0-1-1.07,3.14,3.14,0,0,0-3,0,2.66,2.66,0,0,0-1,1.07A3.45,3.45,0,0,0,193,85a2.72,2.72,0,0,0,1,1.07,3.15,3.15,0,0,0,3,0m-3.5.79A3.74,3.74,0,0,1,192,85.45a4,4,0,0,1-.51-2,4.05,4.05,0,0,1,.51-2A3.62,3.62,0,0,1,193.45,80a4.31,4.31,0,0,1,4,0,3.56,3.56,0,0,1,1.41,1.39,4.05,4.05,0,0,1,.51,2,4,4,0,0,1-.51,2,3.67,3.67,0,0,1-1.41,1.41,4.24,4.24,0,0,1-4,0"/><path class="cls-1" d="M203.64,79.89a3.75,3.75,0,0,1,1.8-.39v1h-.25a2.45,2.45,0,0,0-1.9.75,3,3,0,0,0-.68,2.1v4h-1.09V79.57h1v1.5a2.52,2.52,0,0,1,1.1-1.18"/><path class="cls-1" d="M217.79,79.57l-3.87,8.67a3.67,3.67,0,0,1-1.09,1.54,2.4,2.4,0,0,1-1.49.46,3,3,0,0,1-1-.18,2.31,2.31,0,0,1-.84-.53l.49-.78a1.93,1.93,0,0,0,1.41.59,1.45,1.45,0,0,0,.9-.29,2.64,2.64,0,0,0,.7-1l.34-.76-3.46-7.72h1.09l2.92,6.58,2.91-6.58Z"/><path class="cls-1" d="M223.68,86.07a2.63,2.63,0,0,0,1-1.07,3.54,3.54,0,0,0,0-3.15,2.57,2.57,0,0,0-1-1.07,3.14,3.14,0,0,0-3,0,2.72,2.72,0,0,0-1,1.07,3.54,3.54,0,0,0,0,3.15,2.79,2.79,0,0,0,1,1.07,3.14,3.14,0,0,0,3,0m-3.49.79a3.77,3.77,0,0,1-1.42-1.41,4,4,0,0,1-.51-2,4.05,4.05,0,0,1,.51-2A3.65,3.65,0,0,1,220.19,80a4.31,4.31,0,0,1,4,0,3.47,3.47,0,0,1,1.4,1.39,4.05,4.05,0,0,1,.51,2,4,4,0,0,1-.51,2,3.58,3.58,0,0,1-1.4,1.41,4.24,4.24,0,0,1-4,0"/><path class="cls-1" d="M235.25,79.57V87.3h-1V85.89A2.89,2.89,0,0,1,233.09,87a3.41,3.41,0,0,1-1.65.39,3,3,0,0,1-3.26-3.32V79.57h1V84a2.55,2.55,0,0,0,.61,1.85,2.25,2.25,0,0,0,1.71.63,2.55,2.55,0,0,0,1.93-.74,2.9,2.9,0,0,0,.7-2.07V79.57Z"/></g></g></g></svg>