<svg xmlns="http://www.w3.org/2000/svg" viewBox="0 0 235.23 90.23"><defs><style>.cls-1{fill:#fff;}</style></defs><title>Pulse Blanc - Fixed</title><g id="Calque_2" data-name="Calque 2"><g id="Calque_1-2" data-name="Calque 1"><g id="Pulse_Blanc_-_Fixed" data-name="Pulse Blanc - Fixed"><path class="cls-1" d="M24.81,0h-12V12.87H24.78a10.34,10.34,0,1,1,0,20.67H12.84V23.21H0V61.29H12.84V46.38H24.67A23.19,23.19,0,1,0,24.8,0"/><path class="cls-1" d="M98.75,0H85.91V37.58A10.88,10.88,0,0,1,74.23,48.42,11.15,11.15,0,0,1,64.14,37.49V0H51.3V37.45a23.73,23.73,0,1,0,47.45.13Z"/><polygon class="cls-1" points="128.02 48.45 115.89 48.45 115.89 0.03 103.05 0.03 103.05 61.29 128.02 61.29 128.02 48.45"/><path class="cls-1" d="M191.93,24c2.37-6.29,8-10.72,14.56-10.72S218.67,17.73,221,24ZM206.49,0c-16,0-29,13.74-29,30.63A30.66,30.66,0,0,0,208.1,61.29V48a17.38,17.38,0,0,1-16-10.72h42.47a32,32,0,0,0,.7-6.64C235.23,13.72,222.5,0,206.49,0"/><path class="cls-1" d="M175.63,42.76A18.55,18.55,0,0,1,157.1,61.29H131.83V48.45h25.22a5.66,5.66,0,0,0,0-11.32H143.77a18.55,18.55,0,0,1,0-37.1h13.35V12.92H143.88a5.66,5.66,0,1,0-.07,11.32H157.1a18.55,18.55,0,0,1,18.53,18.53"/><path class="cls-1" d="M6.8,85.9a1.64,1.64,0,0,0,.71-1.47q0-1.92-2.79-1.92H1.09v3.86H4.72A3.79,3.79,0,0,0,6.8,85.9m-5.71-8v3.76h3.3a3.32,3.32,0,0,0,1.93-.48,1.78,1.78,0,0,0,0-2.8,3.32,3.32,0,0,0-1.93-.48Zm7,5a2.48,2.48,0,0,1,.55,1.68,2.35,2.35,0,0,1-1,2,4.87,4.87,0,0,1-2.89.72H0V77H4.44a4.45,4.45,0,0,1,2.66.69,2.29,2.29,0,0,1,1,2,2.4,2.4,0,0,1-.42,1.44A2.45,2.45,0,0,1,6.48,82,2.71,2.71,0,0,1,8,82.87"/><path class="cls-1" d="M17.85,79.57V87.3h-1V85.89A2.91,2.91,0,0,1,15.73,87a3.37,3.37,0,0,1-1.64.39,3.27,3.27,0,0,1-2.39-.85,3.27,3.27,0,0,1-.87-2.47V79.57h1V84a2.6,2.6,0,0,0,.6,1.86,2.27,2.27,0,0,0,1.72.63,2.56,2.56,0,0,0,1.93-.74,2.9,2.9,0,0,0,.7-2.07V79.57Z"/><path class="cls-1" d="M20.78,79.57h1V87.3h-1Zm0-1.94a.74.74,0,0,1,.54-1.26.73.73,0,0,1,.54.21.68.68,0,0,1,.23.51.73.73,0,0,1-.23.54.77.77,0,0,1-1.08,0"/><rect class="cls-1" x="24.75" y="76.36" width="1.03" height="10.94"/><path class="cls-1" d="M33.31,86.05a2.63,2.63,0,0,0,1-1.06,3.27,3.27,0,0,0,.38-1.58,3.23,3.23,0,0,0-.38-1.57,2.66,2.66,0,0,0-1-1.07,3.11,3.11,0,0,0-2.94,0,2.66,2.66,0,0,0-1,1.07A3.23,3.23,0,0,0,29,83.41,3.27,3.27,0,0,0,29.34,85a2.63,2.63,0,0,0,1,1.06,3,3,0,0,0,2.94,0m2.43-9.69V87.3h-1V85.75a3.36,3.36,0,0,1-1.27,1.19,3.56,3.56,0,0,1-1.74.42,4,4,0,0,1-2-.5,3.67,3.67,0,0,1-1.39-1.4,4.43,4.43,0,0,1,0-4.09A3.57,3.57,0,0,1,29.79,80a3.94,3.94,0,0,1,2-.49,3.67,3.67,0,0,1,1.7.39A6.23,6.23,0,0,1,34.71,81V76.36Z"/><path class="cls-1" d="M38.68,79.57h1V87.3h-1Zm0-1.94a.74.74,0,0,1,.55-1.26.76.76,0,0,1,.54.21.67.67,0,0,1,.22.51.72.72,0,0,1-.22.54.79.79,0,0,1-1.09,0"/><path class="cls-1" d="M48.87,80.33a3.34,3.34,0,0,1,.86,2.47v4.5h-1V82.91a2.6,2.6,0,0,0-.6-1.84,2.25,2.25,0,0,0-1.71-.63,2.65,2.65,0,0,0-2,.74,2.84,2.84,0,0,0-.72,2.06V87.3H42.6V79.57h1V81a2.89,2.89,0,0,1,1.18-1.09,3.8,3.8,0,0,1,1.76-.39,3.19,3.19,0,0,1,2.32.84"/><path class="cls-1" d="M57.32,85.7a2.52,2.52,0,0,0,1.06-1,2.87,2.87,0,0,0,.37-1.47,2.81,2.81,0,0,0-.37-1.46,2.6,2.6,0,0,0-1.05-1,3.13,3.13,0,0,0-1.52-.36,3.26,3.26,0,0,0-1.51.35,2.63,2.63,0,0,0-1,1,3,3,0,0,0,0,2.94,2.59,2.59,0,0,0,1,1,3.35,3.35,0,0,0,3,0m2.42-6.13v6.8a4,4,0,0,1-1,2.92,3.91,3.91,0,0,1-2.87.94,6.42,6.42,0,0,1-2-.31A4.09,4.09,0,0,1,52.34,89l.53-.79a4,4,0,0,0,1.34.78,4.92,4.92,0,0,0,1.67.28A2.91,2.91,0,0,0,58,88.62a2.86,2.86,0,0,0,.68-2.12v-1a5.77,5.77,0,0,1-1.25,1.12,4,4,0,0,1-1.74.38,4.08,4.08,0,0,1-2-.48,3.54,3.54,0,0,1-1.4-1.34,4,4,0,0,1,0-3.89A3.46,3.46,0,0,1,53.72,80a4.09,4.09,0,0,1,2-.47,4,4,0,0,1,1.78.39A3.2,3.2,0,0,1,58.76,81V79.57Z"/><path class="cls-1" d="M71.17,86.05a2.63,2.63,0,0,0,1-1.06,3.27,3.27,0,0,0,.38-1.58,3.23,3.23,0,0,0-.38-1.57,2.66,2.66,0,0,0-1-1.07,2.86,2.86,0,0,0-1.46-.37,2.93,2.93,0,0,0-1.48.37,2.72,2.72,0,0,0-1,1.07,3.22,3.22,0,0,0-.37,1.57A3.26,3.26,0,0,0,67.2,85a2.69,2.69,0,0,0,1,1.06,2.94,2.94,0,0,0,1.48.38,2.86,2.86,0,0,0,1.46-.38m2.44-9.69V87.3h-1V85.75a3.36,3.36,0,0,1-1.27,1.19,3.56,3.56,0,0,1-1.74.42,4,4,0,0,1-2-.5,3.57,3.57,0,0,1-1.38-1.4,4.43,4.43,0,0,1,0-4.09A3.48,3.48,0,0,1,67.65,80a4,4,0,0,1,2-.49,3.64,3.64,0,0,1,1.7.39A6.09,6.09,0,0,1,72.58,81V76.36Z"/><path class="cls-1" d="M76.55,79.57h1V87.3h-1Zm0-1.94a.72.72,0,0,1,0-1,.72.72,0,0,1,.54-.22.77.77,0,0,1,.55.21.7.7,0,0,1,.22.51.76.76,0,0,1-.22.54.74.74,0,0,1-.55.22.72.72,0,0,1-.54-.22"/><path class="cls-1" d="M85.2,85.7a2.55,2.55,0,0,0,1-1,2.87,2.87,0,0,0,.38-1.47,2.81,2.81,0,0,0-.38-1.46,2.63,2.63,0,0,0-1-1,3.41,3.41,0,0,0-3,0,2.6,2.6,0,0,0-1.05,1,3.11,3.11,0,0,0,0,2.94,2.55,2.55,0,0,0,1.05,1,3.11,3.11,0,0,0,1.5.36,3.19,3.19,0,0,0,1.52-.36m2.45-6.13v6.8a4,4,0,0,1-1,2.92,3.91,3.91,0,0,1-2.87.94,6.42,6.42,0,0,1-2-.31A4.09,4.09,0,0,1,80.25,89l.53-.79a4,4,0,0,0,1.34.78,4.92,4.92,0,0,0,1.67.28,2.91,2.91,0,0,0,2.14-.69,2.86,2.86,0,0,0,.68-2.12v-1a6.2,6.2,0,0,1-1.28,1.12,4,4,0,0,1-1.75.38,4.14,4.14,0,0,1-2-.48,3.51,3.51,0,0,1-1.39-1.34,4,4,0,0,1,0-3.89A3.4,3.4,0,0,1,81.6,80a4.05,4.05,0,0,1,2-.47,4,4,0,0,1,1.78.39A3.53,3.53,0,0,1,86.67,81V79.57Z"/><path class="cls-1" d="M90.59,79.57h1V87.3h-1Zm0-1.94a.74.74,0,0,1,.55-1.26.75.75,0,0,1,.54.21.67.67,0,0,1,.22.51.75.75,0,0,1-.76.76.74.74,0,0,1-.55-.22"/><path class="cls-1" d="M98.73,86.82a2.06,2.06,0,0,1-.76.41,3.29,3.29,0,0,1-.94.14,2.44,2.44,0,0,1-1.75-.59,2.19,2.19,0,0,1-.61-1.66V80.44H93.31v-.92h1.41V77.83h1v1.74h2.34v.87H95.75v4.62a1.43,1.43,0,0,0,.37,1,1.39,1.39,0,0,0,1,.36,2.05,2.05,0,0,0,.65-.1,1.57,1.57,0,0,0,.54-.3Z"/><path class="cls-1" d="M104.34,86.14a2.45,2.45,0,0,0,.94-1.17V83.71h-2.43c-1.32,0-2,.46-2,1.38a1.24,1.24,0,0,0,.52,1.06,2.33,2.33,0,0,0,1.44.39,2.78,2.78,0,0,0,1.52-.4m1.21-5.9a3,3,0,0,1,.81,2.25V87.3h-1V86.08a2.36,2.36,0,0,1-1,.94,3.73,3.73,0,0,1-1.63.34,3.17,3.17,0,0,1-2-.62,2.12,2.12,0,0,1-.06-3.22,3.32,3.32,0,0,1,2.28-.58h2.44v-.5a2,2,0,0,0-.56-1.52,2.32,2.32,0,0,0-1.64-.52,4.18,4.18,0,0,0-1.41.24,3.57,3.57,0,0,0-1.16.67l-.47-.78a4.16,4.16,0,0,1,1.41-.77,5.56,5.56,0,0,1,1.74-.27,3.29,3.29,0,0,1,2.32.75"/><rect class="cls-1" x="109.19" y="76.36" width="1.03" height="10.94"/><path class="cls-1" d="M117.26,87.08a4,4,0,0,1-1.35-.68l.48-.82a4,4,0,0,0,1.22.62,4.9,4.9,0,0,0,1.53.24,2.92,2.92,0,0,0,1.56-.33,1,1,0,0,0,.51-.93.82.82,0,0,0-.28-.67,2,2,0,0,0-.71-.37,11.11,11.11,0,0,0-1.13-.24,13.67,13.67,0,0,1-1.51-.36,2.13,2.13,0,0,1-1-.63,1.73,1.73,0,0,1-.41-1.22A1.94,1.94,0,0,1,117,80.1a3.65,3.65,0,0,1,2.25-.61,5.93,5.93,0,0,1,1.5.19,4.2,4.2,0,0,1,1.24.53l-.46.84a3.82,3.82,0,0,0-2.28-.67,2.57,2.57,0,0,0-1.5.36,1.07,1.07,0,0,0-.51.92.92.92,0,0,0,.28.71,1.85,1.85,0,0,0,.72.39,12,12,0,0,0,1.18.26,11.73,11.73,0,0,1,1.48.35,2.3,2.3,0,0,1,1,.6,1.7,1.7,0,0,1,.39,1.18,1.87,1.87,0,0,1-.84,1.61,4,4,0,0,1-2.35.6,5.65,5.65,0,0,1-1.8-.28"/><path class="cls-1" d="M128.82,86.05a2.63,2.63,0,0,0,1-1.06,3.38,3.38,0,0,0,.36-1.58,3.33,3.33,0,0,0-.36-1.57,2.66,2.66,0,0,0-1-1.07,2.9,2.9,0,0,0-1.48-.37,2.87,2.87,0,0,0-1.47.37,2.66,2.66,0,0,0-1,1.07,3.23,3.23,0,0,0-.38,1.57,3.27,3.27,0,0,0,.38,1.58,2.63,2.63,0,0,0,1,1.06,2.87,2.87,0,0,0,1.47.38,2.91,2.91,0,0,0,1.48-.38m-3.49.8a3.67,3.67,0,0,1-1.41-1.41,3.91,3.91,0,0,1-.52-2,4,4,0,0,1,.52-2A3.56,3.56,0,0,1,125.33,80a4.31,4.31,0,0,1,4,0,3.47,3.47,0,0,1,1.4,1.39,4.05,4.05,0,0,1,.51,2,4,4,0,0,1-.51,2,3.58,3.58,0,0,1-1.4,1.41,4.24,4.24,0,0,1-4,0"/><rect class="cls-1" x="133.4" y="76.36" width="1.03" height="10.94"/><path class="cls-1" d="M144.34,79.57V87.3h-1V85.89A2.91,2.91,0,0,1,142.17,87a3.37,3.37,0,0,1-1.64.39,3,3,0,0,1-3.26-3.32V79.57h1.08V84a2.6,2.6,0,0,0,.61,1.86,2.26,2.26,0,0,0,1.72.63,2.54,2.54,0,0,0,1.92-.74,2.9,2.9,0,0,0,.71-2.07V79.57Z"/><path class="cls-1" d="M151.3,86.82a2,2,0,0,1-.72.41,3,3,0,0,1-.9.14,2,2,0,0,1-2.24-2.25V80.44h-1.36v-.92h1.36V77.83h1v1.74h2.34v.87h-2.34v4.62a1.46,1.46,0,0,0,.35,1,1.27,1.27,0,0,0,1,.36,1.87,1.87,0,0,0,.62-.1,1.44,1.44,0,0,0,.51-.3Z"/><path class="cls-1" d="M153.26,79.57h1V87.3h-1Zm0-1.94a.72.72,0,0,1,0-1,.73.73,0,0,1,.54-.22.77.77,0,0,1,.55.21.7.7,0,0,1,.22.51.76.76,0,0,1-.22.54.79.79,0,0,1-1.09,0"/><path class="cls-1" d="M161.83,86.05a2.54,2.54,0,0,0,1-1.06,3.26,3.26,0,0,0,.37-1.58,3.22,3.22,0,0,0-.37-1.57,2.57,2.57,0,0,0-1-1.07,3.15,3.15,0,0,0-3,0,2.7,2.7,0,0,0-1,1.07,3.23,3.23,0,0,0-.38,1.57,3.27,3.27,0,0,0,.38,1.58,2.67,2.67,0,0,0,1,1.06,3.07,3.07,0,0,0,3,0m-3.49.8a3.67,3.67,0,0,1-1.41-1.41,3.91,3.91,0,0,1-.52-2,4,4,0,0,1,.52-2A3.56,3.56,0,0,1,158.34,80a4.31,4.31,0,0,1,4,0,3.53,3.53,0,0,1,1.4,1.39,4.05,4.05,0,0,1,.51,2,4,4,0,0,1-.51,2,3.65,3.65,0,0,1-1.4,1.41,4.24,4.24,0,0,1-4,0"/><path class="cls-1" d="M172.7,80.33a3.34,3.34,0,0,1,.86,2.47v4.5h-1.09V82.91a2.6,2.6,0,0,0-.6-1.84,2.26,2.26,0,0,0-1.72-.63,2.63,2.63,0,0,0-2,.74,2.8,2.8,0,0,0-.73,2.06V87.3h-1V79.57h1V81a2.89,2.89,0,0,1,1.18-1.09,3.8,3.8,0,0,1,1.76-.39,3.19,3.19,0,0,1,2.32.84"/><path class="cls-1" d="M176.64,87.08a3.9,3.9,0,0,1-1.34-.68l.47-.82a4,4,0,0,0,1.22.62,4.9,4.9,0,0,0,1.53.24,2.94,2.94,0,0,0,1.57-.33,1,1,0,0,0,.5-.93.82.82,0,0,0-.28-.67,1.94,1.94,0,0,0-.7-.37c-.29-.08-.66-.16-1.13-.24a13.93,13.93,0,0,1-1.52-.36,2.18,2.18,0,0,1-1-.63,1.73,1.73,0,0,1-.4-1.22,1.94,1.94,0,0,1,.81-1.59,3.65,3.65,0,0,1,2.25-.61,5.93,5.93,0,0,1,1.5.19,4.14,4.14,0,0,1,1.23.53l-.45.84a3.86,3.86,0,0,0-2.28-.67,2.61,2.61,0,0,0-1.51.36,1.07,1.07,0,0,0-.51.92.93.93,0,0,0,.29.71,1.81,1.81,0,0,0,.71.39c.29.08.68.17,1.18.26a11.94,11.94,0,0,1,1.49.35,2.21,2.21,0,0,1,1,.6,1.66,1.66,0,0,1,.4,1.18,1.86,1.86,0,0,1-.85,1.61,4,4,0,0,1-2.34.6,5.76,5.76,0,0,1-1.81-.28"/><path class="cls-1" d="M189,77.54a1.55,1.55,0,0,0-.34,1.09v.94H191v.87h-2.39V87.3h-1V80.44h-1.36v-.87h1.36v-1a2.31,2.31,0,0,1,.61-1.68,2.35,2.35,0,0,1,1.73-.62,3,3,0,0,1,.85.13,1.86,1.86,0,0,1,.7.36l-.36.78a1.67,1.67,0,0,0-1.14-.38,1.36,1.36,0,0,0-1,.36"/><path class="cls-1" d="M196.92,86.05a2.67,2.67,0,0,0,1-1.06,3.38,3.38,0,0,0,.37-1.58,3.34,3.34,0,0,0-.37-1.57,2.7,2.7,0,0,0-1-1.07,3.15,3.15,0,0,0-3,0,2.66,2.66,0,0,0-1,1.07,3.23,3.23,0,0,0-.38,1.57,3.27,3.27,0,0,0,.38,1.58,2.63,2.63,0,0,0,1,1.06,3.07,3.07,0,0,0,3,0m-3.5.8A3.67,3.67,0,0,1,192,85.44a4,4,0,0,1-.52-2,4.06,4.06,0,0,1,.52-2A3.56,3.56,0,0,1,193.42,80a4.31,4.31,0,0,1,4,0,3.56,3.56,0,0,1,1.41,1.39,4,4,0,0,1,.5,2,4,4,0,0,1-.5,2,3.67,3.67,0,0,1-1.41,1.41,4.24,4.24,0,0,1-4,0"/><path class="cls-1" d="M203.58,79.88a3.8,3.8,0,0,1,1.8-.39v1h-.24a2.45,2.45,0,0,0-1.9.75,3,3,0,0,0-.69,2.1v4h-1V79.57h1v1.49a2.52,2.52,0,0,1,1.1-1.18"/><path class="cls-1" d="M217.75,79.57l-3.87,8.66a3.57,3.57,0,0,1-1.09,1.55,2.43,2.43,0,0,1-1.48.45,3,3,0,0,1-1.05-.17,2.32,2.32,0,0,1-.83-.53l.48-.78a1.93,1.93,0,0,0,1.41.59,1.4,1.4,0,0,0,.91-.3,2.67,2.67,0,0,0,.7-1l.34-.75-3.46-7.72h1.09l2.91,6.58,2.91-6.58Z"/><path class="cls-1" d="M223.64,86.05a2.54,2.54,0,0,0,1-1.06,3.26,3.26,0,0,0,.37-1.58,3.22,3.22,0,0,0-.37-1.57,2.57,2.57,0,0,0-1-1.07,2.9,2.9,0,0,0-1.48-.37,2.87,2.87,0,0,0-1.47.37,2.66,2.66,0,0,0-1,1.07,3.23,3.23,0,0,0-.38,1.57,3.27,3.27,0,0,0,.38,1.58,2.63,2.63,0,0,0,1,1.06,2.87,2.87,0,0,0,1.47.38,2.91,2.91,0,0,0,1.48-.38m-3.49.8a3.67,3.67,0,0,1-1.41-1.41,3.91,3.91,0,0,1-.52-2,4,4,0,0,1,.52-2A3.56,3.56,0,0,1,220.15,80a4.31,4.31,0,0,1,4,0,3.47,3.47,0,0,1,1.4,1.39,4.05,4.05,0,0,1,.51,2,4,4,0,0,1-.51,2,3.58,3.58,0,0,1-1.4,1.41,4.24,4.24,0,0,1-4,0"/><path class="cls-1" d="M235.2,79.57V87.3h-1V85.89A2.89,2.89,0,0,1,233.09,87a3.41,3.41,0,0,1-1.65.39,3,3,0,0,1-3.26-3.32V79.57h1V84a2.56,2.56,0,0,0,.61,1.86,2.25,2.25,0,0,0,1.71.63,2.55,2.55,0,0,0,1.93-.74,2.9,2.9,0,0,0,.7-2.07V79.57Z"/></g></g></g></svg>